<svg version="1.1" id="Layer_1" xmlns="http://www.w3.org/2000/svg" xmlns:xlink="http://www.w3.org/1999/xlink" x="0px" y="0px"
	 width="100%" viewBox="0 0 500 300" enable-background="new 0 0 500 300" xml:space="preserve">
<path fill="#000000" opacity="1.000000" stroke="none" 
	d="
M371.000000,301.000000 
	C247.371811,301.000000 124.243629,301.000000 1.057725,301.000000 
	C1.057725,201.069763 1.057725,101.139473 1.057725,1.104592 
	C167.544800,1.104592 334.089691,1.104592 500.817291,1.104592 
	C500.817291,100.999725 500.817291,200.999832 500.817291,301.000000 
	C457.806183,301.000000 414.653107,301.000000 371.000000,301.000000 
M223.317673,57.311993 
	C223.317673,57.311993 223.162643,57.525726 222.649353,57.868366 
	C221.394730,58.898109 220.140106,59.927853 218.422241,61.082996 
	C218.124695,61.267941 217.969772,61.535477 217.335693,62.149830 
	C215.852295,63.419086 214.368896,64.688339 212.270477,66.209641 
	C210.140945,68.793350 208.011414,71.377060 205.301956,74.180801 
	C204.496475,75.106392 203.690994,76.031982 202.270370,77.209808 
	C201.140884,78.793457 200.011398,80.377098 198.294556,82.188210 
	C196.036575,85.630516 200.340607,84.622124 201.261765,86.740852 
	C210.159668,92.197945 219.057571,97.655037 228.210953,103.697792 
	C229.085083,103.131546 229.959213,102.565300 230.987259,101.302193 
	C231.066269,100.991783 231.040451,100.556831 231.239639,100.389198 
	C236.189850,96.222771 241.176575,92.099739 246.128479,87.935287 
	C248.793350,85.694191 251.405716,83.390640 254.690994,81.014282 
	C255.608658,80.625221 256.526306,80.236168 257.688263,79.695778 
	C257.688263,79.695778 257.845306,79.455147 258.406647,79.098473 
	C261.620361,77.435158 264.834045,75.771843 268.699158,74.010544 
	C269.132477,73.951477 269.565765,73.892410 270.630920,73.839386 
	C271.436462,73.262512 272.242004,72.685631 273.856842,72.011551 
	C276.018280,71.438812 278.154114,70.730324 280.345612,70.317009 
	C289.524536,68.585907 298.605621,66.260399 308.147797,67.922676 
	C315.450287,69.194794 322.868408,69.803307 330.764832,71.191032 
	C333.509674,72.071800 336.254547,72.952568 339.655945,74.141190 
	C352.405334,81.037750 364.632538,88.583672 374.806000,99.187721 
	C382.361084,107.062607 387.269073,116.489960 392.031097,126.768509 
	C393.409821,131.226562 394.788544,135.684601 396.055206,140.938293 
	C396.425690,141.625656 396.796173,142.313019 397.022064,143.661499 
	C397.070251,144.107437 397.118439,144.553391 397.020111,145.753830 
	C397.402283,147.169342 397.784454,148.584854 398.022064,150.661499 
	C398.070251,151.107437 398.118439,151.553391 398.019287,152.926331 
	C397.973145,160.271454 397.926971,167.616577 397.255981,175.268402 
	C397.226196,176.178940 397.196411,177.089462 397.019745,178.817230 
	C396.973450,180.198715 396.927155,181.580215 396.255981,183.268402 
	C396.226196,184.178940 396.196411,185.089462 396.019562,186.731384 
	C395.973328,187.474808 395.927094,188.218231 395.246796,189.285141 
	C396.164337,189.801208 397.081909,190.317276 398.926514,190.980713 
	C408.571533,190.987137 418.220245,190.838058 427.859894,191.069016 
	C432.331848,191.176163 434.356354,189.472656 434.688873,184.800552 
	C434.737030,184.200562 434.785217,183.600586 434.980286,182.219025 
	C435.024261,181.160828 435.068237,180.102615 435.688873,178.800552 
	C435.737061,178.200562 435.785217,177.600586 435.980194,176.105026 
	C436.024200,173.084824 436.068207,170.064621 436.688904,166.800552 
	C436.737061,166.200562 436.785217,165.600586 436.980286,164.109268 
	C436.652649,158.530701 436.699860,152.897888 435.902283,147.387344 
	C434.911041,140.538605 433.221405,133.790939 431.966827,126.215370 
	C430.542450,122.222588 429.118103,118.229805 427.836426,113.602631 
	C427.502075,113.068298 427.167725,112.533966 426.973938,111.357445 
	C426.562622,110.649002 426.151306,109.940559 425.847656,108.489655 
	C419.079834,97.675293 413.183533,86.164436 405.271790,76.264252 
	C398.799591,68.165443 389.924255,61.987106 381.857666,54.347553 
	C380.924042,53.865734 379.990387,53.383915 379.012512,52.981823 
	C379.012512,52.981823 379.093292,52.939518 378.812531,52.295723 
	C375.968201,50.458893 373.220825,48.446247 370.262939,46.815361 
	C356.725067,39.351028 342.576874,33.593643 326.734467,31.258644 
	C325.822876,31.227983 324.911255,31.197325 323.269287,31.019632 
	C322.526703,30.974588 321.784149,30.929544 320.571960,30.153973 
	C310.714691,30.158203 300.857391,30.162434 290.292084,30.027044 
	C289.194946,30.406918 288.097778,30.786791 286.257568,31.020056 
	C285.505096,31.068924 284.752594,31.117794 283.292084,31.027044 
	C282.194946,31.406919 281.097778,31.786793 279.338989,32.022110 
	C278.892700,32.070293 278.446411,32.118481 277.210083,32.033859 
	C269.734314,34.349438 261.918884,35.925114 254.866257,39.162556 
	C245.446838,43.486465 236.619568,49.100300 227.317947,54.310322 
	C227.317947,54.310322 227.162415,54.526592 226.676529,54.853554 
	C225.629272,55.622929 224.582001,56.392303 223.317673,57.311993 
M356.753998,231.305054 
	C356.835999,236.448532 356.933441,241.591827 356.995117,246.735550 
	C357.044037,250.818146 361.125366,256.753632 364.973083,256.733337 
	C367.694855,256.719025 370.481140,254.687622 373.062439,253.242035 
	C373.640259,252.918457 373.481903,251.280350 373.662476,250.247437 
	C371.236725,250.083954 368.811005,249.920471 366.343262,249.754166 
	C366.343262,243.539474 366.343262,237.327911 366.343262,230.700378 
	C369.100037,230.700378 371.508575,230.700378 373.799072,230.700378 
	C373.799072,228.317932 373.799072,226.363083 373.799072,223.900894 
	C371.113678,224.127350 368.667419,224.333649 365.999573,224.558624 
	C365.999573,222.291763 366.401550,220.038406 365.867584,218.034439 
	C365.467621,216.533478 364.082031,214.762955 362.711029,214.252930 
	C361.891083,213.947906 359.698486,215.576843 359.114136,216.807251 
	C358.243683,218.640121 358.249115,220.888977 357.240692,223.239105 
	C355.269287,224.338684 353.297913,225.438278 350.626495,226.928299 
	C352.665131,228.409698 354.332794,229.621521 356.753998,231.305054 
M255.925430,190.454544 
	C255.727921,134.542099 208.930664,77.611641 134.810684,88.037300 
	C83.159927,95.302452 46.520634,143.521881 48.482277,190.766617 
	C58.226089,190.766617 67.971428,190.766617 77.703682,190.766617 
	C79.681175,147.652374 110.835915,120.871330 145.291306,117.190857 
	C167.459717,114.822861 186.810318,122.679573 202.961166,138.017242 
	C218.058899,152.354813 225.249542,170.334122 225.989120,190.960846 
	C236.169617,190.960846 245.652130,190.960846 255.925430,190.454544 
M329.628387,170.872406 
	C331.864746,164.280441 331.672729,157.730606 329.057281,151.309082 
	C324.065674,139.053604 309.153320,131.051895 293.599792,136.910309 
	C282.284180,141.172485 275.100494,155.254242 278.201324,168.476486 
	C278.681702,170.524887 278.238037,173.198486 279.401520,174.611481 
	C286.584320,183.334824 294.939728,189.380127 307.366364,188.173584 
	C316.706543,187.266708 326.248352,180.777130 329.628387,170.872406 
M166.474396,167.944931 
	C156.314713,161.239258 145.995590,161.520279 136.317169,168.414398 
	C128.888580,173.705917 124.737320,181.217880 125.182762,190.749390 
	C143.371155,190.749390 161.138046,190.749390 178.911392,190.749390 
	C178.556046,181.162613 174.903275,173.544800 166.474396,167.944931 
M166.888443,224.015076 
	C165.390045,224.010056 163.871292,224.162628 162.396790,223.972412 
	C156.396927,223.198334 152.099411,225.658752 150.239990,233.863586 
	C149.345276,237.811539 149.613235,242.209213 150.218765,246.274551 
	C151.771179,256.696838 159.739670,258.725037 167.559952,255.098267 
	C168.579254,254.625549 169.920151,254.450729 171.026062,254.640182 
	C173.569290,255.075851 176.059509,255.821030 178.739243,256.482025 
	C178.739243,240.387039 178.739243,225.316681 178.739243,210.259644 
	C175.733139,210.259644 172.996780,210.259644 169.999603,210.259644 
	C169.999603,214.149658 170.156235,217.797012 169.896194,221.414429 
	C169.825836,222.393295 168.494446,223.281509 166.888443,224.015076 
M85.011070,252.518005 
	C89.475655,255.733490 94.335541,258.124451 99.908264,256.532166 
	C109.502670,253.790848 113.581825,248.890747 111.967659,235.982925 
	C110.906265,227.495316 106.031967,224.578644 97.892075,223.124527 
	C91.158188,221.921570 82.606339,226.988068 81.486275,233.266052 
	C80.366989,239.539673 79.344032,246.414124 85.011070,252.518005 
M211.841934,255.662399 
	C211.894531,249.669601 212.303268,243.651901 211.886871,237.691879 
	C211.554489,232.934174 211.116547,227.840103 206.128372,225.007217 
	C199.576187,221.286087 191.214508,222.898117 186.042328,228.896820 
	C187.359528,233.740387 190.358566,233.743668 194.295914,232.044876 
	C196.012634,231.304199 198.172302,230.823746 199.924530,231.196045 
	C201.131271,231.452438 201.983536,233.377213 202.994202,234.556305 
	C201.975510,235.371033 201.076904,236.542908 199.915573,236.933441 
	C196.447998,238.099457 192.729523,238.609344 189.383347,240.024231 
	C184.871979,241.931778 183.641678,245.855942 184.647934,250.302124 
	C185.850479,255.615463 191.419540,257.959442 194.486526,256.806427 
	C200.160294,254.673401 205.567627,254.714096 211.841934,255.662399 
M378.732330,224.104248 
	C378.579193,232.320236 377.926361,240.568939 378.461609,248.739838 
	C378.779175,253.587555 383.924469,257.218628 388.486847,256.941589 
	C394.177155,256.596069 399.842163,255.834045 405.782715,255.224716 
	C405.782715,245.218781 405.782715,234.827560 405.782715,224.228165 
	C402.852112,224.228165 400.128021,224.228165 396.997559,224.228165 
	C396.997559,230.894653 397.089417,237.343124 396.960907,243.787201 
	C396.890930,247.297043 394.841034,249.081299 391.310333,248.987656 
	C387.863586,248.896240 386.933380,246.784485 386.974365,243.692017 
	C387.059692,237.253845 387.000153,230.813751 387.000153,224.012115 
	C384.249512,224.012115 381.961731,224.012115 378.732330,224.104248 
M436.000153,244.059616 
	C437.015686,253.394470 446.994598,259.223785 457.985168,255.867737 
	C460.994324,254.948883 465.141296,253.054016 463.702698,249.178940 
	C462.339569,245.507141 458.781586,247.164536 455.816101,248.540894 
	C451.015839,250.768799 447.970734,249.518341 445.812592,245.433624 
	C444.147705,242.282562 445.299805,241.010376 448.340302,241.058105 
	C451.760834,241.111771 455.211151,241.381546 458.582031,241.950867 
	C462.810455,242.665009 465.036957,241.011124 465.000000,236.706802 
	C464.937866,229.477676 459.326874,223.539993 452.050995,223.003998 
	C445.412140,222.514908 437.071106,228.170227 436.101746,234.191284 
	C435.631500,237.112076 436.007233,240.169052 436.000153,244.059616 
M144.000000,249.403351 
	C144.000000,240.990509 144.000000,232.577652 144.000000,224.285767 
	C141.015778,224.285767 138.613022,224.285767 135.999985,224.285767 
	C135.999985,230.529907 135.736755,236.505249 136.079315,242.445663 
	C136.379059,247.643661 132.703888,248.564728 129.271729,248.845673 
	C125.174179,249.181107 125.030167,245.634506 125.011307,242.601700 
	C124.973396,236.501221 125.000023,230.400314 125.000023,224.219193 
	C122.138496,224.219193 119.738785,224.219193 117.000000,224.219193 
	C117.000000,231.875259 116.985153,239.317383 117.004166,246.759430 
	C117.023140,254.182205 122.228249,258.017548 129.591385,256.099701 
	C131.985916,255.475967 134.417755,254.467606 136.811569,254.524063 
	C139.007187,254.575882 141.174561,255.825363 144.000000,256.760925 
	C144.000000,253.964722 144.000000,252.167480 144.000000,249.403351 
M302.893127,248.951691 
	C301.928741,246.684525 300.288635,244.462845 300.132324,242.141266 
	C299.734467,236.232880 300.000000,230.279831 300.000000,224.261734 
	C297.115967,224.261734 294.724518,224.261734 292.002045,224.261734 
	C292.002045,232.629837 291.836945,240.745697 292.071228,248.850006 
	C292.189575,252.942917 294.837006,255.681534 298.864624,255.898407 
	C305.445374,256.252777 312.059113,255.994202 318.757141,255.994202 
	C318.757141,245.126205 318.757141,234.741287 318.757141,224.261047 
	C316.117249,224.261047 313.725830,224.261047 311.000000,224.261047 
	C311.000000,230.300659 311.018707,236.086075 310.994781,241.871323 
	C310.970551,247.736832 309.856873,248.811722 302.893127,248.951691 
M222.408646,242.067169 
	C222.820572,242.346725 223.197495,242.775421 223.650085,242.881653 
	C226.600143,243.574142 230.261810,244.320526 228.722473,248.279388 
	C227.333694,251.851044 224.373184,249.482864 222.028976,248.519363 
	C218.064941,246.890060 215.870422,248.438324 215.028137,252.647873 
	C219.935516,255.879959 224.734924,258.213684 230.939346,256.109711 
	C235.404572,254.595474 238.534149,252.383331 238.970886,247.516571 
	C239.516769,241.433517 238.087265,239.270660 232.373123,237.150803 
	C230.715591,236.535889 228.866760,236.366714 227.303635,235.593109 
	C226.355820,235.124039 225.787781,233.887589 225.049118,232.995850 
	C226.044449,232.331696 227.009293,231.169403 228.041428,231.106232 
	C230.246109,230.971283 232.485641,231.405579 234.913025,231.624939 
	C235.793686,230.326782 236.783020,228.868469 237.794342,227.377716 
	C234.012070,222.616592 229.133331,222.463425 223.756271,223.977081 
	C219.990463,225.037155 216.742386,226.773163 216.073395,230.905991 
	C215.287704,235.759537 216.141602,240.131699 222.408646,242.067169 
M254.621277,256.999512 
	C257.739746,256.053406 260.858185,255.107315 263.976654,254.161209 
	C264.083893,253.471954 264.191132,252.782715 264.298370,252.093460 
	C262.170471,251.060226 259.980835,250.133606 257.939423,248.951096 
	C256.834351,248.310959 255.196823,247.276779 255.146515,246.347427 
	C254.871964,241.275497 255.015854,236.180923 255.015854,230.693909 
	C258.104156,230.693909 260.511902,230.693909 262.791534,230.693909 
	C262.791534,228.309769 262.791534,226.359665 262.791534,223.985062 
	C260.196228,223.985062 257.774506,223.985062 255.110626,223.985062 
	C255.110626,220.940369 255.110626,218.327438 255.110626,215.824066 
	C248.778641,213.351471 247.783585,213.790771 247.041824,219.769165 
	C246.594315,223.375824 245.055588,225.522949 240.802811,225.140793 
	C240.582016,225.610916 240.361221,226.081024 240.140442,226.551132 
	C241.855713,228.464310 243.570984,230.377472 246.000000,233.086746 
	C246.000000,236.545059 245.999573,241.358353 246.000092,246.171646 
	C246.000946,253.942810 246.185272,254.198303 254.621277,256.999512 
M49.028111,248.982925 
	C47.905941,248.040604 46.432571,247.307098 45.725487,246.117966 
	C43.315292,242.064575 43.213989,237.744980 45.816093,233.788986 
	C48.209209,230.150742 51.730011,230.359207 55.454048,231.729904 
	C56.633202,232.163910 58.126068,232.198318 59.350662,231.901337 
	C60.205471,231.694031 61.342422,230.690262 61.468132,229.901215 
	C61.651237,228.751862 61.445541,226.826279 60.699123,226.358185 
	C55.561569,223.136246 49.732342,221.530960 44.224384,224.468613 
	C37.369186,228.124802 34.343483,234.434753 34.980042,242.357941 
	C35.353020,247.000427 40.335896,254.525421 44.350296,255.742432 
	C51.781330,257.995178 57.648056,257.349274 62.761383,250.503326 
	C60.795170,247.081451 58.041393,246.513641 54.530560,247.999115 
	C53.090034,248.608627 51.422539,248.681717 49.028111,248.982925 
M347.751312,231.738113 
	C348.194946,228.909851 348.780182,225.828262 345.568085,224.317612 
	C341.220032,222.272751 332.910339,223.785965 329.577362,226.750015 
	C322.174774,233.333221 322.680573,243.440781 327.339050,250.755585 
	C331.920380,257.949280 344.361847,259.656006 351.947906,250.971252 
	C349.879944,246.974594 347.211945,245.976761 343.316895,248.855606 
	C342.308197,249.601151 340.476074,249.927765 339.265778,249.585464 
	C333.945862,248.080811 331.617676,241.191025 334.073364,234.838745 
	C335.526306,231.080353 340.004669,229.941925 345.081390,231.982986 
	C345.707581,232.234741 346.454346,232.186584 347.751312,231.738113 
M74.999985,213.668182 
	C74.881714,212.449066 74.763451,211.229965 74.664017,210.205002 
	C71.906662,210.205002 69.635117,210.205002 67.307098,210.205002 
	C67.307098,225.565186 67.307098,240.718460 67.307098,255.695602 
	C70.022232,255.695602 72.423759,255.695602 75.000000,255.695602 
	C75.000000,241.805740 75.000000,228.219437 74.999985,213.668182 
M423.403900,234.069656 
	C426.385406,233.076859 429.366913,232.084076 432.888794,230.911362 
	C434.850403,226.802338 432.793060,225.401337 428.045197,225.975021 
	C425.822449,226.243591 423.471924,226.698990 421.351288,226.252609 
	C418.715057,225.697708 416.256744,224.297577 413.303101,223.091614 
	C413.303101,234.984772 413.303101,245.377975 413.303101,255.669952 
	C416.345917,255.669952 419.071655,255.669952 422.000000,255.669952 
	C422.000000,253.528381 421.927887,251.712051 422.013794,249.903214 
	C422.254181,244.840775 422.559937,239.781418 423.403900,234.069656 
M268.000000,233.541153 
	C268.000000,240.960846 268.000000,248.380554 268.000000,255.665741 
	C271.015747,255.665741 273.410858,255.665741 276.000275,255.665741 
	C276.000275,249.863464 275.991821,244.392761 276.003052,238.922104 
	C276.011322,234.892548 277.954926,232.512360 282.015198,232.006088 
	C288.107849,231.246353 288.249176,231.067886 287.708130,224.437469 
	C283.082947,221.925400 279.524658,224.529190 277.248810,226.148239 
	C273.664185,225.094421 271.103516,224.341629 268.000000,223.429245 
	C268.000000,227.266724 268.000000,229.911072 268.000000,233.541153 
z"/>
<path fill="#FECD0C" opacity="1.000000" stroke="none" 
	d="
M392.166626,126.000366 
	C387.269073,116.489960 382.361084,107.062607 374.806000,99.187721 
	C364.632538,88.583672 352.405334,81.037750 339.251801,73.638901 
	C335.976807,72.326736 333.105927,71.516861 330.235077,70.706985 
	C322.868408,69.803307 315.450287,69.194794 308.147797,67.922676 
	C298.605621,66.260399 289.524536,68.585907 280.345612,70.317009 
	C278.154114,70.730324 276.018280,71.438812 273.254028,71.786629 
	C271.767151,72.318916 270.883118,73.076126 269.999084,73.833336 
	C269.565765,73.892410 269.132477,73.951477 268.127808,73.762939 
	C262.310181,72.682388 257.971313,75.336243 257.845306,79.455147 
	C257.845306,79.455147 257.688263,79.695778 257.223633,79.543579 
	C255.853256,79.965996 254.947510,80.540627 254.041779,81.115257 
	C251.405716,83.390640 248.793350,85.694191 246.128479,87.935287 
	C241.176575,92.099739 236.189850,96.222771 231.239639,100.389198 
	C231.040451,100.556831 231.066269,100.991783 230.577362,101.654480 
	C229.430130,102.375221 228.692795,102.743675 227.955475,103.112137 
	C219.057571,97.655037 210.159668,92.197945 201.120575,86.035973 
	C200.280228,84.207642 199.581055,83.084190 198.881897,81.960739 
	C200.011398,80.377098 201.140884,78.793457 202.963303,77.094849 
	C204.963577,76.388710 206.270905,75.797539 207.578232,75.206360 
	C207.012772,74.791161 206.447327,74.375961 205.881866,73.960770 
	C208.011414,71.377060 210.140945,68.793350 213.002228,66.095535 
	C216.909058,66.438492 218.522415,65.285141 217.957474,61.885597 
	C217.969772,61.535477 218.124695,61.267941 219.088013,61.032372 
	C221.876541,60.802738 225.105484,61.714825 223.162643,57.525726 
	C223.162643,57.525726 223.317673,57.311993 223.825806,57.473763 
	C227.026581,58.191189 228.752182,57.867027 227.162415,54.526592 
	C227.162415,54.526592 227.317947,54.310322 227.796906,54.464058 
	C229.626114,54.301708 231.127060,54.264004 232.303619,53.627052 
	C246.038742,46.191326 259.903839,39.090256 275.075562,34.915619 
	C276.216187,34.601765 277.032867,33.110569 278.000122,32.166664 
	C278.446411,32.118481 278.892700,32.070293 279.730988,32.417870 
	C282.735046,35.371319 283.372253,33.279964 284.000122,31.166664 
	C284.752594,31.117794 285.505096,31.068924 286.690216,31.416840 
	C289.734894,34.371277 290.372223,32.280064 291.000122,30.166664 
	C300.857391,30.162434 310.714691,30.158203 320.835419,30.855330 
	C322.065796,31.426680 323.032745,31.296675 323.999664,31.166668 
	C324.911255,31.197325 325.822876,31.227983 326.942627,31.955122 
	C327.942291,33.100693 328.687225,33.682430 329.532257,33.978844 
	C340.984894,37.996098 352.507690,41.821560 363.889282,46.029362 
	C369.097046,47.954689 374.033691,50.613407 379.093292,52.939518 
	C379.093292,52.939518 379.012512,52.981823 379.070312,53.302780 
	C380.123505,54.068291 381.118896,54.512836 382.114288,54.957382 
	C389.924255,61.987106 398.799591,68.165443 405.271790,76.264252 
	C413.183533,86.164436 419.079834,97.675293 425.579834,109.195358 
	C425.819122,110.600586 426.326263,111.300102 426.833374,111.999626 
	C427.167725,112.533966 427.502075,113.068298 427.560974,114.321243 
	C428.801453,119.026451 430.317413,123.013046 431.833374,126.999634 
	C433.221405,133.790939 434.911041,140.538605 435.902283,147.387344 
	C436.699860,152.897888 436.652649,158.530701 436.620331,164.597015 
	C436.210999,165.737976 436.161621,166.391190 436.112213,167.044418 
	C436.068207,170.064621 436.024200,173.084824 435.620270,176.594879 
	C435.210968,177.737976 435.161591,178.391190 435.112213,179.044418 
	C435.068237,180.102615 435.024261,181.160828 434.620331,182.651886 
	C434.210968,183.737976 434.161591,184.391190 434.112213,185.044418 
	C434.356354,189.472656 432.331848,191.176163 427.859894,191.069016 
	C418.220245,190.838058 408.571533,190.987137 398.406982,190.592026 
	C397.218597,189.789444 396.549744,189.375549 395.880890,188.961655 
	C395.927094,188.218231 395.973328,187.474808 396.416321,186.323944 
	C397.417389,185.311172 398.021759,184.705841 398.626099,184.100510 
	C398.044342,183.720901 397.462585,183.341293 396.880829,182.961700 
	C396.927155,181.580215 396.973450,180.198715 397.416382,178.366882 
	C398.417389,177.311188 399.021759,176.705841 399.626099,176.100510 
	C399.044342,175.720917 398.462585,175.341309 397.880829,174.961700 
	C397.926971,167.616577 397.973145,160.271454 398.373657,152.419098 
	C399.022064,151.593628 399.316132,151.275391 399.610168,150.957153 
	C399.128998,150.638229 398.647797,150.319305 398.166626,150.000381 
	C397.784454,148.584854 397.402283,147.169342 397.374084,145.332855 
	C398.022064,144.593628 398.316132,144.275391 398.610168,143.957153 
	C398.128998,143.638229 397.647797,143.319305 397.166626,143.000381 
	C396.796173,142.313019 396.425690,141.625656 396.474182,140.428955 
	C395.317657,135.279877 393.742126,130.640121 392.166626,126.000366 
z"/>
<path fill="#FFFFFF" opacity="1.000000" stroke="none" 
	d="
M255.530029,190.707703 
	C245.652130,190.960846 236.169617,190.960846 225.989120,190.960846 
	C225.249542,170.334122 218.058899,152.354813 202.961166,138.017242 
	C186.810318,122.679573 167.459717,114.822861 145.291306,117.190857 
	C110.835915,120.871330 79.681175,147.652374 77.703682,190.766617 
	C67.971428,190.766617 58.226089,190.766617 48.482277,190.766617 
	C46.520634,143.521881 83.159927,95.302452 134.810684,88.037300 
	C208.930664,77.611641 255.727921,134.542099 255.530029,190.707703 
z"/>
<path fill="#FECD0C" opacity="1.000000" stroke="none" 
	d="
M329.358673,171.181458 
	C326.248352,180.777130 316.706543,187.266708 307.366364,188.173584 
	C294.939728,189.380127 286.584320,183.334824 279.401520,174.611481 
	C278.238037,173.198486 278.681702,170.524887 278.201324,168.476486 
	C275.100494,155.254242 282.284180,141.172485 293.599792,136.910309 
	C309.153320,131.051895 324.065674,139.053604 329.057281,151.309082 
	C331.672729,157.730606 331.864746,164.280441 329.358673,171.181458 
z"/>
<path fill="#FFFFFF" opacity="1.000000" stroke="none" 
	d="
M166.847931,167.982788 
	C174.903275,173.544800 178.556046,181.162613 178.911392,190.749390 
	C161.138046,190.749390 143.371155,190.749390 125.182762,190.749390 
	C124.737320,181.217880 128.888580,173.705917 136.317169,168.414398 
	C145.995590,161.520279 156.314713,161.239258 166.847931,167.982788 
z"/>
<path fill="#FFFFFF" opacity="1.000000" stroke="none" 
	d="
M167.315155,224.113205 
	C168.494446,223.281509 169.825836,222.393295 169.896194,221.414429 
	C170.156235,217.797012 169.999603,214.149658 169.999603,210.259644 
	C172.996780,210.259644 175.733139,210.259644 178.739243,210.259644 
	C178.739243,225.316681 178.739243,240.387039 178.739243,256.482025 
	C176.059509,255.821030 173.569290,255.075851 171.026062,254.640182 
	C169.920151,254.450729 168.579254,254.625549 167.559952,255.098267 
	C159.739670,258.725037 151.771179,256.696838 150.218765,246.274551 
	C149.613235,242.209213 149.345276,237.811539 150.239990,233.863586 
	C152.099411,225.658752 156.396927,223.198334 162.396790,223.972412 
	C163.871292,224.162628 165.390045,224.010056 167.315155,224.113205 
M166.130753,248.972031 
	C167.419418,247.712250 169.350723,246.664627 169.852402,245.145020 
	C170.692963,242.598938 171.501312,239.452332 170.703232,237.110504 
	C169.788727,234.426910 167.449432,230.879517 165.116989,230.336426 
	C161.372833,229.464645 159.094604,232.608688 159.008469,236.642120 
	C158.962418,238.798370 158.996933,240.956406 159.000748,243.113632 
	C159.008148,247.298752 160.781723,249.603210 166.130753,248.972031 
z"/>
<path fill="#FFFFFF" opacity="1.000000" stroke="none" 
	d="
M84.734894,252.245682 
	C79.344032,246.414124 80.366989,239.539673 81.486275,233.266052 
	C82.606339,226.988068 91.158188,221.921570 97.892075,223.124527 
	C106.031967,224.578644 110.906265,227.495316 111.967659,235.982925 
	C113.581825,248.890747 109.502670,253.790848 99.908264,256.532166 
	C94.335541,258.124451 89.475655,255.733490 84.734894,252.245682 
M98.502853,230.958298 
	C97.330765,230.802002 96.046341,230.256012 95.005753,230.555939 
	C90.125732,231.962494 89.449928,236.623413 89.581146,240.276825 
	C89.687233,243.230499 91.872688,247.130463 94.347443,248.699310 
	C96.975983,250.365662 100.880127,249.057831 102.706528,245.672775 
	C104.946419,241.521332 103.185402,234.551208 98.502853,230.958298 
z"/>
<path fill="#FFFFFF" opacity="1.000000" stroke="none" 
	d="
M211.518387,255.946381 
	C205.567627,254.714096 200.160294,254.673401 194.486526,256.806427 
	C191.419540,257.959442 185.850479,255.615463 184.647934,250.302124 
	C183.641678,245.855942 184.871979,241.931778 189.383347,240.024231 
	C192.729523,238.609344 196.447998,238.099457 199.915573,236.933441 
	C201.076904,236.542908 201.975510,235.371033 202.994202,234.556305 
	C201.983536,233.377213 201.131271,231.452438 199.924530,231.196045 
	C198.172302,230.823746 196.012634,231.304199 194.295914,232.044876 
	C190.358566,233.743668 187.359528,233.740387 186.040619,228.901428 
	C191.214508,222.898117 199.576187,221.286087 206.128372,225.007217 
	C211.116547,227.840103 211.554489,232.934174 211.886871,237.691879 
	C212.303268,243.651901 211.894531,249.669601 211.518387,255.946381 
M202.067673,246.457932 
	C202.439362,245.482025 202.811035,244.506104 203.507492,242.677429 
	C200.814285,243.237427 198.791397,243.257462 197.204788,244.099548 
	C195.588150,244.957565 194.400696,246.624252 193.025345,247.936874 
	C194.999710,248.484222 196.960968,249.358963 198.954056,249.438797 
	C199.929352,249.477859 200.963852,248.038696 202.067673,246.457932 
z"/>
<path fill="#FECD0C" opacity="1.000000" stroke="none" 
	d="
M379.203156,224.058182 
	C381.961731,224.012115 384.249512,224.012115 387.000153,224.012115 
	C387.000153,230.813751 387.059692,237.253845 386.974365,243.692017 
	C386.933380,246.784485 387.863586,248.896240 391.310333,248.987656 
	C394.841034,249.081299 396.890930,247.297043 396.960907,243.787201 
	C397.089417,237.343124 396.997559,230.894653 396.997559,224.228165 
	C400.128021,224.228165 402.852112,224.228165 405.782715,224.228165 
	C405.782715,234.827560 405.782715,245.218781 405.782715,255.224716 
	C399.842163,255.834045 394.177155,256.596069 388.486847,256.941589 
	C383.924469,257.218628 378.779175,253.587555 378.461609,248.739838 
	C377.926361,240.568939 378.579193,232.320236 379.203156,224.058182 
z"/>
<path fill="#FECD0C" opacity="1.000000" stroke="none" 
	d="
M436.000061,243.612000 
	C436.007233,240.169052 435.631500,237.112076 436.101746,234.191284 
	C437.071106,228.170227 445.412140,222.514908 452.050995,223.003998 
	C459.326874,223.539993 464.937866,229.477676 465.000000,236.706802 
	C465.036957,241.011124 462.810455,242.665009 458.582031,241.950867 
	C455.211151,241.381546 451.760834,241.111771 448.340302,241.058105 
	C445.299805,241.010376 444.147705,242.282562 445.812592,245.433624 
	C447.970734,249.518341 451.015839,250.768799 455.816101,248.540894 
	C458.781586,247.164536 462.339569,245.507141 463.702698,249.178940 
	C465.141296,253.054016 460.994324,254.948883 457.985168,255.867737 
	C446.994598,259.223785 437.015686,253.394470 436.000061,243.612000 
M446.160950,235.973892 
	C449.710999,235.973892 453.261047,235.973892 456.811096,235.973892 
	C457.076141,235.382736 457.341217,234.791595 457.606293,234.200439 
	C455.441467,232.801407 453.384949,230.495163 451.085846,230.220581 
	C447.814178,229.829849 445.348175,231.918732 446.160950,235.973892 
z"/>
<path fill="#FFFFFF" opacity="1.000000" stroke="none" 
	d="
M144.000000,249.886795 
	C144.000000,252.167480 144.000000,253.964722 144.000000,256.760925 
	C141.174561,255.825363 139.007187,254.575882 136.811569,254.524063 
	C134.417755,254.467606 131.985916,255.475967 129.591385,256.099701 
	C122.228249,258.017548 117.023140,254.182205 117.004166,246.759430 
	C116.985153,239.317383 117.000000,231.875259 117.000000,224.219193 
	C119.738785,224.219193 122.138496,224.219193 125.000023,224.219193 
	C125.000023,230.400314 124.973396,236.501221 125.011307,242.601700 
	C125.030167,245.634506 125.174179,249.181107 129.271729,248.845673 
	C132.703888,248.564728 136.379059,247.643661 136.079315,242.445663 
	C135.736755,236.505249 135.999985,230.529907 135.999985,224.285767 
	C138.613022,224.285767 141.015778,224.285767 144.000000,224.285767 
	C144.000000,232.577652 144.000000,240.990509 144.000000,249.886795 
z"/>
<path fill="#FECD0C" opacity="1.000000" stroke="none" 
	d="
M303.317810,248.973053 
	C309.856873,248.811722 310.970551,247.736832 310.994781,241.871323 
	C311.018707,236.086075 311.000000,230.300659 311.000000,224.261047 
	C313.725830,224.261047 316.117249,224.261047 318.757141,224.261047 
	C318.757141,234.741287 318.757141,245.126205 318.757141,255.994202 
	C312.059113,255.994202 305.445374,256.252777 298.864624,255.898407 
	C294.837006,255.681534 292.189575,252.942917 292.071228,248.850006 
	C291.836945,240.745697 292.002045,232.629837 292.002045,224.261734 
	C294.724518,224.261734 297.115967,224.261734 300.000000,224.261734 
	C300.000000,230.279831 299.734467,236.232880 300.132324,242.141266 
	C300.288635,244.462845 301.928741,246.684525 303.317810,248.973053 
z"/>
<path fill="#FECD0C" opacity="1.000000" stroke="none" 
	d="
M222.020264,242.035400 
	C216.141602,240.131699 215.287704,235.759537 216.073395,230.905991 
	C216.742386,226.773163 219.990463,225.037155 223.756271,223.977081 
	C229.133331,222.463425 234.012070,222.616592 237.794342,227.377716 
	C236.783020,228.868469 235.793686,230.326782 234.913025,231.624939 
	C232.485641,231.405579 230.246109,230.971283 228.041428,231.106232 
	C227.009293,231.169403 226.044449,232.331696 225.049133,232.995850 
	C225.787781,233.887589 226.355820,235.124039 227.303635,235.593109 
	C228.866760,236.366714 230.715591,236.535889 232.373123,237.150803 
	C238.087265,239.270660 239.516769,241.433517 238.970886,247.516571 
	C238.534149,252.383331 235.404572,254.595474 230.939346,256.109711 
	C224.734924,258.213684 219.935516,255.879959 215.028137,252.647873 
	C215.870422,248.438324 218.064941,246.890060 222.028976,248.519363 
	C224.373184,249.482864 227.333694,251.851044 228.722473,248.279388 
	C230.261810,244.320526 226.600143,243.574142 223.650085,242.881653 
	C223.197495,242.775421 222.820572,242.346725 222.020264,242.035400 
z"/>
<path fill="#FECD0C" opacity="1.000000" stroke="none" 
	d="
M254.209290,256.997742 
	C246.185272,254.198303 246.000946,253.942810 246.000092,246.171646 
	C245.999573,241.358353 246.000000,236.545059 246.000000,233.086746 
	C243.570984,230.377472 241.855713,228.464310 240.140442,226.551132 
	C240.361221,226.081024 240.582016,225.610916 240.802811,225.140793 
	C245.055588,225.522949 246.594315,223.375824 247.041824,219.769165 
	C247.783585,213.790771 248.778641,213.351471 255.110626,215.824066 
	C255.110626,218.327438 255.110626,220.940369 255.110626,223.985062 
	C257.774506,223.985062 260.196228,223.985062 262.791534,223.985062 
	C262.791534,226.359665 262.791534,228.309769 262.791534,230.693909 
	C260.511902,230.693909 258.104156,230.693909 255.015854,230.693909 
	C255.015854,236.180923 254.871964,241.275497 255.146515,246.347427 
	C255.196823,247.276779 256.834351,248.310959 257.939423,248.951096 
	C259.980835,250.133606 262.170471,251.060226 264.298370,252.093460 
	C264.191132,252.782715 264.083893,253.471954 263.976654,254.161209 
	C260.858185,255.107315 257.739746,256.053406 254.209290,256.997742 
z"/>
<path fill="#FFFFFF" opacity="1.000000" stroke="none" 
	d="
M49.443199,248.990875 
	C51.422539,248.681717 53.090034,248.608627 54.530560,247.999115 
	C58.041393,246.513641 60.795170,247.081451 62.761383,250.503326 
	C57.648056,257.349274 51.781330,257.995178 44.350296,255.742432 
	C40.335896,254.525421 35.353020,247.000427 34.980042,242.357941 
	C34.343483,234.434753 37.369186,228.124802 44.224384,224.468613 
	C49.732342,221.530960 55.561569,223.136246 60.699123,226.358185 
	C61.445541,226.826279 61.651237,228.751862 61.468132,229.901215 
	C61.342422,230.690262 60.205471,231.694031 59.350662,231.901337 
	C58.126068,232.198318 56.633202,232.163910 55.454048,231.729904 
	C51.730011,230.359207 48.209209,230.150742 45.816093,233.788986 
	C43.213989,237.744980 43.315292,242.064575 45.725487,246.117966 
	C46.432571,247.307098 47.905941,248.040604 49.443199,248.990875 
z"/>
<path fill="#FECD0C" opacity="1.000000" stroke="none" 
	d="
M347.448273,232.007751 
	C346.454346,232.186584 345.707581,232.234741 345.081390,231.982986 
	C340.004669,229.941925 335.526306,231.080353 334.073364,234.838745 
	C331.617676,241.191025 333.945862,248.080811 339.265778,249.585464 
	C340.476074,249.927765 342.308197,249.601151 343.316895,248.855606 
	C347.211945,245.976761 349.879944,246.974594 351.947906,250.971252 
	C344.361847,259.656006 331.920380,257.949280 327.339050,250.755585 
	C322.680573,243.440781 322.174774,233.333221 329.577362,226.750015 
	C332.910339,223.785965 341.220032,222.272751 345.568085,224.317612 
	C348.780182,225.828262 348.194946,228.909851 347.448273,232.007751 
z"/>
<path fill="#FECD0C" opacity="1.000000" stroke="none" 
	d="
M357.881836,222.960815 
	C358.249115,220.888977 358.243683,218.640121 359.114136,216.807251 
	C359.698486,215.576843 361.891083,213.947906 362.711029,214.252930 
	C364.082031,214.762955 365.467621,216.533478 365.867584,218.034439 
	C366.401550,220.038406 365.999573,222.291763 365.999573,224.558624 
	C368.667419,224.333649 371.113678,224.127350 373.799072,223.900894 
	C373.799072,226.363083 373.799072,228.317932 373.799072,230.700378 
	C371.508575,230.700378 369.100037,230.700378 366.343262,230.700378 
	C366.343262,237.327911 366.343262,243.539474 366.343262,249.754166 
	C368.811005,249.920471 371.236725,250.083954 373.662476,250.247437 
	C373.481903,251.280350 373.640259,252.918457 373.062439,253.242035 
	C370.481140,254.687622 367.694855,256.719025 364.973083,256.733337 
	C361.125366,256.753632 357.044037,250.818146 356.995117,246.735550 
	C356.933441,241.591827 356.835999,236.448532 356.377869,230.696564 
	C356.812317,228.641022 357.405853,226.998413 358.488708,225.796722 
	C359.825745,224.312988 360.417542,223.423889 357.881836,222.960815 
z"/>
<path fill="#FFFFFF" opacity="1.000000" stroke="none" 
	d="
M74.999992,214.150665 
	C75.000000,228.219437 75.000000,241.805740 75.000000,255.695602 
	C72.423759,255.695602 70.022232,255.695602 67.307098,255.695602 
	C67.307098,240.718460 67.307098,225.565186 67.307098,210.205002 
	C69.635117,210.205002 71.906662,210.205002 74.664017,210.205002 
	C74.763451,211.229965 74.881714,212.449066 74.999992,214.150665 
z"/>
<path fill="#FECD0C" opacity="1.000000" stroke="none" 
	d="
M423.121887,234.395264 
	C422.559937,239.781418 422.254181,244.840775 422.013794,249.903214 
	C421.927887,251.712051 422.000000,253.528381 422.000000,255.669952 
	C419.071655,255.669952 416.345917,255.669952 413.303101,255.669952 
	C413.303101,245.377975 413.303101,234.984772 413.303101,223.091614 
	C416.256744,224.297577 418.715057,225.697708 421.351288,226.252609 
	C423.471924,226.698990 425.822449,226.243591 428.045197,225.975021 
	C432.793060,225.401337 434.850403,226.802338 432.888794,230.911362 
	C429.366913,232.084076 426.385406,233.076859 423.121887,234.395264 
z"/>
<path fill="#FECD0C" opacity="1.000000" stroke="none" 
	d="
M268.000000,233.048279 
	C268.000000,229.911072 268.000000,227.266724 268.000000,223.429245 
	C271.103516,224.341629 273.664185,225.094421 277.248810,226.148239 
	C279.524658,224.529190 283.082947,221.925400 287.708130,224.437531 
	C288.249176,231.067886 288.107849,231.246353 282.015198,232.006088 
	C277.954926,232.512360 276.011322,234.892548 276.003052,238.922104 
	C275.991821,244.392761 276.000275,249.863464 276.000275,255.665741 
	C273.410858,255.665741 271.015747,255.665741 268.000000,255.665741 
	C268.000000,248.380554 268.000000,240.960846 268.000000,233.048279 
z"/>
<path fill="#FECD0C" opacity="1.000000" stroke="none" 
	d="
M277.605103,32.100266 
	C277.032867,33.110569 276.216187,34.601765 275.075562,34.915619 
	C259.903839,39.090256 246.038742,46.191326 232.303619,53.627052 
	C231.127060,54.264004 229.626114,54.301708 227.906921,54.388969 
	C236.619568,49.100300 245.446838,43.486465 254.866257,39.162556 
	C261.918884,35.925114 269.734314,34.349438 277.605103,32.100266 
z"/>
<path fill="#FECD0C" opacity="1.000000" stroke="none" 
	d="
M378.952911,52.617622 
	C374.033691,50.613407 369.097046,47.954689 363.889282,46.029362 
	C352.507690,41.821560 340.984894,37.996098 329.532257,33.978844 
	C328.687225,33.682430 327.942291,33.100693 327.096161,32.268017 
	C342.576874,33.593643 356.725067,39.351028 370.262939,46.815361 
	C373.220825,48.446247 375.968201,50.458893 378.952911,52.617622 
z"/>
<path fill="#FECD0C" opacity="1.000000" stroke="none" 
	d="
M258.125977,79.276810 
	C257.971313,75.336243 262.310181,72.682388 267.802124,73.811928 
	C264.834045,75.771843 261.620361,77.435158 258.125977,79.276810 
z"/>
<path fill="#FECD0C" opacity="1.000000" stroke="none" 
	d="
M357.561279,223.099960 
	C360.417542,223.423889 359.825745,224.312988 358.488708,225.796722 
	C357.405853,226.998413 356.812317,228.641022 356.001099,230.460693 
	C354.332794,229.621521 352.665131,228.409698 350.626495,226.928299 
	C353.297913,225.438278 355.269287,224.338684 357.561279,223.099960 
z"/>
<path fill="#FECD0C" opacity="1.000000" stroke="none" 
	d="
M392.098877,126.384438 
	C393.742126,130.640121 395.317657,135.279877 396.530243,140.031143 
	C394.788544,135.684601 393.409821,131.226562 392.098877,126.384438 
z"/>
<path fill="#FECD0C" opacity="1.000000" stroke="none" 
	d="
M431.900085,126.607498 
	C430.317413,123.013046 428.801453,119.026451 427.489624,114.638443 
	C429.118103,118.229805 430.542450,122.222588 431.900085,126.607498 
z"/>
<path fill="#FECD0C" opacity="1.000000" stroke="none" 
	d="
M330.499939,70.949005 
	C333.105927,71.516861 335.976807,72.326736 338.923523,73.484970 
	C336.254547,72.952568 333.509674,72.071800 330.499939,70.949005 
z"/>
<path fill="#FECD0C" opacity="1.000000" stroke="none" 
	d="
M217.646576,62.017715 
	C218.522415,65.285141 216.909058,66.438492 213.309738,65.969513 
	C214.368896,64.688339 215.852295,63.419086 217.646576,62.017715 
z"/>
<path fill="#FECD0C" opacity="1.000000" stroke="none" 
	d="
M222.906006,57.697044 
	C225.105484,61.714825 221.876541,60.802738 219.319641,60.969673 
	C220.140106,59.927853 221.394730,58.898109 222.906006,57.697044 
z"/>
<path fill="#FECD0C" opacity="1.000000" stroke="none" 
	d="
M226.919464,54.690071 
	C228.752182,57.867027 227.026581,58.191189 223.934341,57.398605 
	C224.582001,56.392303 225.629272,55.622929 226.919464,54.690071 
z"/>
<path fill="#FECD0C" opacity="1.000000" stroke="none" 
	d="
M198.588226,82.074478 
	C199.581055,83.084190 200.280228,84.207642 200.968475,85.722794 
	C200.340607,84.622124 196.036575,85.630516 198.588226,82.074478 
z"/>
<path fill="#FECD0C" opacity="1.000000" stroke="none" 
	d="
M205.591919,74.070786 
	C206.447327,74.375961 207.012772,74.791161 207.578232,75.206360 
	C206.270905,75.797539 204.963577,76.388710 203.270874,76.968735 
	C203.690994,76.031982 204.496475,75.106392 205.591919,74.070786 
z"/>
<path fill="#FECD0C" opacity="1.000000" stroke="none" 
	d="
M290.646118,30.096855 
	C290.372223,32.280064 289.734894,34.371277 287.061768,31.490143 
	C288.097778,30.786791 289.194946,30.406918 290.646118,30.096855 
z"/>
<path fill="#FECD0C" opacity="1.000000" stroke="none" 
	d="
M283.646118,31.096855 
	C283.372253,33.279964 282.735046,35.371319 280.061829,32.490150 
	C281.097778,31.786793 282.194946,31.406919 283.646118,31.096855 
z"/>
<path fill="#FECD0C" opacity="1.000000" stroke="none" 
	d="
M396.568420,183.115051 
	C397.462585,183.341293 398.044342,183.720901 398.626099,184.100510 
	C398.021759,184.705841 397.417389,185.311172 396.489838,185.958252 
	C396.196411,185.089462 396.226196,184.178940 396.568420,183.115051 
z"/>
<path fill="#FECD0C" opacity="1.000000" stroke="none" 
	d="
M397.568420,175.115051 
	C398.462585,175.341309 399.044342,175.720917 399.626099,176.100510 
	C399.021759,176.705841 398.417389,177.311188 397.489838,177.958252 
	C397.196411,177.089462 397.226196,176.178940 397.568420,175.115051 
z"/>
<path fill="#FECD0C" opacity="1.000000" stroke="none" 
	d="
M270.315002,73.836365 
	C270.883118,73.076126 271.767151,72.318916 272.849365,71.835236 
	C272.242004,72.685631 271.436462,73.262512 270.315002,73.836365 
z"/>
<path fill="#FECD0C" opacity="1.000000" stroke="none" 
	d="
M395.563843,189.123398 
	C396.549744,189.375549 397.218597,189.789444 397.943451,190.518341 
	C397.081909,190.317276 396.164337,189.801208 395.563843,189.123398 
z"/>
<path fill="#FECD0C" opacity="1.000000" stroke="none" 
	d="
M254.366379,81.064766 
	C254.947510,80.540627 255.853256,79.965996 257.101501,79.619247 
	C256.526306,80.236168 255.608658,80.625221 254.366379,81.064766 
z"/>
<path fill="#FECD0C" opacity="1.000000" stroke="none" 
	d="
M323.634460,31.093151 
	C323.032745,31.296675 322.065796,31.426680 321.070221,31.220594 
	C321.784149,30.929544 322.526703,30.974588 323.634460,31.093151 
z"/>
<path fill="#FECD0C" opacity="1.000000" stroke="none" 
	d="
M228.083221,103.404968 
	C228.692795,102.743675 229.430130,102.375221 230.500397,102.002914 
	C229.959213,102.565300 229.085083,103.131546 228.083221,103.404968 
z"/>
<path fill="#FECD0C" opacity="1.000000" stroke="none" 
	d="
M381.985962,54.652470 
	C381.118896,54.512836 380.123505,54.068291 379.092438,53.262917 
	C379.990387,53.383915 380.924042,53.865734 381.985962,54.652470 
z"/>
<path fill="#FECD0C" opacity="1.000000" stroke="none" 
	d="
M434.400543,184.922485 
	C434.161591,184.391190 434.210968,183.737976 434.546875,183.042664 
	C434.785217,183.600586 434.737030,184.200562 434.400543,184.922485 
z"/>
<path fill="#FECD0C" opacity="1.000000" stroke="none" 
	d="
M435.400513,178.922485 
	C435.161591,178.391190 435.210968,177.737976 435.546875,177.042664 
	C435.785217,177.600586 435.737061,178.200562 435.400513,178.922485 
z"/>
<path fill="#FECD0C" opacity="1.000000" stroke="none" 
	d="
M436.400574,166.922485 
	C436.161621,166.391190 436.210999,165.737976 436.546875,165.042664 
	C436.785217,165.600586 436.737061,166.200562 436.400574,166.922485 
z"/>
<path fill="#FECD0C" opacity="1.000000" stroke="none" 
	d="
M398.094360,150.330933 
	C398.647797,150.319305 399.128998,150.638229 399.610168,150.957153 
	C399.316132,151.275391 399.022064,151.593628 398.447327,151.955597 
	C398.118439,151.553391 398.070251,151.107437 398.094360,150.330933 
z"/>
<path fill="#FECD0C" opacity="1.000000" stroke="none" 
	d="
M397.094360,143.330933 
	C397.647797,143.319305 398.128998,143.638229 398.610168,143.957153 
	C398.316132,144.275391 398.022064,144.593628 397.447327,144.955597 
	C397.118439,144.553391 397.070251,144.107437 397.094360,143.330933 
z"/>
<path fill="#FECD0C" opacity="1.000000" stroke="none" 
	d="
M426.903656,111.678528 
	C426.326263,111.300102 425.819122,110.600586 425.526001,109.566589 
	C426.151306,109.940559 426.562622,110.649002 426.903656,111.678528 
z"/>
<path fill="#000000" opacity="1.000000" stroke="none" 
	d="
M165.705399,248.984985 
	C160.781723,249.603210 159.008148,247.298752 159.000748,243.113632 
	C158.996933,240.956406 158.962418,238.798370 159.008469,236.642120 
	C159.094604,232.608688 161.372833,229.464645 165.116989,230.336426 
	C167.449432,230.879517 169.788727,234.426910 170.703232,237.110504 
	C171.501312,239.452332 170.692963,242.598938 169.852402,245.145020 
	C169.350723,246.664627 167.419418,247.712250 165.705399,248.984985 
z"/>
<path fill="#000000" opacity="1.000000" stroke="none" 
	d="
M98.889435,230.993866 
	C103.185402,234.551208 104.946419,241.521332 102.706528,245.672775 
	C100.880127,249.057831 96.975983,250.365662 94.347443,248.699310 
	C91.872688,247.130463 89.687233,243.230499 89.581146,240.276825 
	C89.449928,236.623413 90.125732,231.962494 95.005753,230.555939 
	C96.046341,230.256012 97.330765,230.802002 98.889435,230.993866 
z"/>
<path fill="#000000" opacity="1.000000" stroke="none" 
	d="
M202.019623,246.863251 
	C200.963852,248.038696 199.929352,249.477859 198.954056,249.438797 
	C196.960968,249.358963 194.999710,248.484222 193.025330,247.936859 
	C194.400696,246.624252 195.588150,244.957565 197.204788,244.099548 
	C198.791397,243.257462 200.814285,243.237427 203.507492,242.677429 
	C202.811035,244.506104 202.439362,245.482025 202.019623,246.863251 
z"/>
<path fill="#000000" opacity="1.000000" stroke="none" 
	d="
M445.749176,235.865723 
	C445.348175,231.918732 447.814178,229.829849 451.085846,230.220581 
	C453.384949,230.495163 455.441467,232.801407 457.606293,234.200439 
	C457.341217,234.791595 457.076141,235.382736 456.811096,235.973892 
	C453.261047,235.973892 449.710999,235.973892 445.749176,235.865723 
z"/>
</svg>